<svg id="Layer_1" xmlns="http://www.w3.org/2000/svg" viewBox="0 0 203 102"><style>.st0{fill:#ffcd09}.st1{fill:#f58220}.st2{fill:none}</style><path class="st0" d="M13.1 33.3v36.8h34.4V59.8H23.4V43.7h24.1V33.3H23.6z"/><path class="st1" d="M13.1 23L3 33.3v36.8l10.1 10.3h34.4V70.1H13.1V33.3h34.4V23z"/><g><path class="st2" d="M125.5 42.1c-.3-.4-.6-.8-1-1-.4-.3-1-.4-1.6-.4-2.2 0-3.4 1.6-3.4 4.8 0 .6.1 1.2.2 1.8s.3 1.1.6 1.5c.3.4.6.8 1 1 .4.3 1 .4 1.6.4 2.3 0 3.4-1.6 3.4-4.8 0-.6-.1-1.3-.2-1.8-.2-.6-.4-1.1-.6-1.5zM111.7 40.8c-1.1 0-2 .4-2.7 1.1-.6.8-1 2-1 3.6 0 .7.1 1.3.2 1.9.1.6.3 1.1.5 1.5s.6.7 1 1c.4.2.9.4 1.5.4.8 0 1.5-.2 2-.7s.8-1.1 1-2v-6.2c-.3-.2-.6-.4-1-.5-.4-.1-.9-.1-1.5-.1zM151.2 40.6c-2.6 0-3.7 2.4-3.7 4.6 0 2.6 1.5 4.6 3.6 4.6s3.6-2 3.6-4.7c.1-2-.9-4.5-3.5-4.5zM74.7 44.9c-.7 0-1.5 0-2.3.1s-1.3.3-1.6.7c-.3.4-.5.9-.5 1.3 0 .6.2 1.1.6 1.4.4.4.9.6 1.6.6.5 0 .9-.1 1.4-.2.5-.1.9-.3 1.1-.5.3-.2.5-.4.7-.6.2-.2.3-.5.4-.7v-2.1h-1.4zM95.6 44.9c-.7 0-1.5 0-2.3.1s-1.3.3-1.6.7c-.3.4-.5.9-.5 1.3 0 .6.2 1.1.6 1.4.4.4.9.6 1.6.6.5 0 .9-.1 1.4-.2.5-.1.9-.3 1.1-.5.3-.2.5-.4.7-.6.2-.2.3-.5.4-.7v-2.1h-1.4zM163.6 40.7c-2.3 0-3.6 2-3.6 4.6 0 2.4 1.2 4.4 3.5 4.4 1.5 0 2.8-1 3.2-2.6.1-.3.1-.6.1-.9v-2.1c0-.3 0-.6-.1-.9-.2-1.4-1.4-2.5-3.1-2.5zM193.9 40.6c-2.6 0-3.7 2.4-3.7 4.6 0 2.6 1.5 4.6 3.6 4.6s3.6-2 3.6-4.7c.1-2-.9-4.5-3.5-4.5zM181.2 40.6c-2.1 0-3.6 1.8-3.6 4.5 0 2.4 1.2 4.3 3.5 4.3 1.4 0 2.6-.8 3-2.2.1-.4.2-.8.2-1.2v-2.2c0-.4 0-.7-.1-1-.3-1.1-1.3-2.2-3-2.2z"/><path d="M65.7 49.9c-.6.1-1.2.2-1.9.2-.8 0-1.6-.1-2.3-.4-.7-.3-1.3-.7-1.8-1.3s-.9-1.3-1.2-2.2c-.4-1-.5-2-.5-3.2 0-1.3.2-2.4.5-3.4.3-.9.7-1.6 1.3-2.2.5-.6 1.1-1 1.8-1.2s1.3-.4 2-.4c1.5 0 2.6.2 3.4.6l1.1-1.6c-.8-.3-1.6-.5-2.2-.6-.8-.2-1.6-.2-2.6-.2-.9 0-1.8.2-2.7.5s-1.7.9-2.4 1.6c-.7.7-1.3 1.6-1.7 2.8-.5 1.1-.7 2.5-.7 4.1s.2 2.9.6 4c.4 1.1.9 2.1 1.6 2.8.7.7 1.5 1.3 2.4 1.6.9.4 1.9.5 2.9.5.9 0 1.7-.1 2.4-.2.8-.1 1.6-.6 2.5-1.2l-1.1-1.2c-.3.3-.8.4-1.4.6zM143 49.4c-.6.1-1.2.2-1.9.2-.8 0-1.6-.1-2.3-.4-.7-.3-1.3-.7-1.8-1.3s-.9-1.3-1.2-2.2-.4-1.9-.4-3.1c0-1.3.2-2.4.5-3.4.3-.9.7-1.6 1.3-2.2.5-.6 1.1-1 1.8-1.2s1.3-.4 2-.4c1.5 0 2.6.2 3.4.6l1.1-1.6c-.8-.3-1.6-.5-2.2-.6-.6-.1-1.4-.2-2.4-.2-.9 0-1.8.2-2.7.5s-1.7.9-2.4 1.6c-.7.7-1.3 1.6-1.7 2.8-.4 1.1-.7 2.5-.7 4.1s.2 2.9.6 4c.4 1.1.9 2.1 1.6 2.8.7.7 1.5 1.3 2.4 1.6s1.9.5 2.9.5c.9 0 1.7-.1 2.4-.2.8-.1 1.6-.6 2.5-1.2l-1.1-1.2c-.7.2-1.1.4-1.7.5zM78.4 50.2c-.2-.6-.3-1.2-.3-1.8 0-.8 0-1.7.1-2.7.1-.9.1-1.9.1-2.9 0-.4 0-.9-.1-1.3s-.3-.9-.5-1.2c-.3-.4-.7-.7-1.2-.9s-1.2-.3-2.1-.3-1.8.1-2.6.3c-.8.2-1.6.5-2.2.8l.6 1.5c.2-.1.5-.3.8-.4s.6-.2 1-.3c.3-.1.7-.1 1-.2.3 0 .6-.1.9-.1 1 0 1.6.2 2 .5.4.4.5 1 .5 1.9 0 .4 0 .8-.1 1.3h-1.4c-1.1 0-2.2.1-3.3.2-1 .1-1.8.6-2.4 1.4-.6.8-.8 1.5-.8 2.3 0 .5.1 1 .3 1.5.2.4.5.8.8 1.1s.7.5 1.2.7.9.2 1.5.2c.5 0 1.1-.1 1.6-.2s1-.3 1.3-.4c.3-.2.6-.4.8-.6.2-.2.4-.5.6-.7h.1c.3 1.2.8 1.7 1.3 1.7h1.8c-.8-.3-1.1-.8-1.3-1.4zm-2.2-2c-.1.2-.2.4-.4.7-.2.2-.4.4-.7.6-.3.2-.6.3-1.1.5-.5.1-1 .2-1.4.2-.6 0-1.2-.2-1.6-.6-.4-.4-.6-.8-.6-1.4 0-.4.2-.8.5-1.3.3-.4.9-.7 1.6-.7.8-.1 1.5-.1 2.3-.1h1.4v2.1zM86.7 45.3c-.4-.3-.9-.5-1.4-.7s-1-.4-1.4-.6c-.4-.2-.8-.4-1.1-.6-.3-.2-.4-.6-.4-1 0-.6.2-1 .5-1.3.3-.2.9-.4 1.6-.4.6 0 1.2.1 1.7.2s1 .3 1.4.5l.5-1.6c-.4-.2-1-.4-1.6-.6-.6-.2-1.4-.2-2.2-.2-1.2 0-2.2.3-2.8.8-.7.6-1 1.4-1 2.6 0 .7.1 1.3.4 1.7s.7.8 1.1 1.1.9.5 1.4.7 1 .4 1.4.5c.4.2.8.4 1.1.7.3.3.4.7.4 1.2 0 .7-.2 1.2-.7 1.5s-1.1.4-1.8.4c-.6 0-1.2-.1-1.9-.3-.6-.2-1.1-.4-1.5-.6l-.5 1.7c.4.2 1 .5 1.7.6.7.2 1.5.3 2.4.3.7 0 1.4-.1 1.9-.3s1-.5 1.4-.8.6-.7.8-1.2c.2-.5.3-1 .3-1.5 0-.7-.1-1.3-.4-1.8-.5-.3-.8-.7-1.3-1zM99.2 50.2c-.2-.6-.3-1.2-.3-1.8 0-.8 0-1.7.1-2.7.1-.9.1-1.9.1-2.9 0-.4 0-.9-.1-1.3s-.3-.9-.5-1.2c-.3-.4-.7-.7-1.2-.9s-1.2-.3-2.1-.3-1.8.1-2.6.3c-.8.2-1.6.5-2.2.8l.6 1.5c.2-.1.5-.3.8-.4.3-.1.6-.2 1-.3.3-.1.7-.1 1-.2.3 0 .6-.1.9-.1 1 0 1.6.2 2 .5.4.4.5 1 .5 1.9 0 .4 0 .8-.1 1.3h-1.4c-1.1 0-2.2.1-3.3.2-1 .1-1.8.6-2.4 1.4-.6.8-.8 1.5-.8 2.3 0 .5.1 1 .3 1.5.2.4.5.8.8 1.1s.7.5 1.2.7.9.2 1.5.2 1.1-.1 1.6-.2 1-.3 1.3-.4c.3-.2.6-.4.8-.6.2-.2.4-.5.6-.7h.1c.3 1.2.8 1.7 1.3 1.7h1.8c-.7-.3-1.1-.8-1.3-1.4zm-2.2-2c-.1.2-.2.4-.4.7-.2.2-.4.4-.7.6-.3.2-.6.3-1.1.5-.5.1-1 .2-1.4.2-.6 0-1.2-.2-1.6-.6-.4-.4-.6-.8-.6-1.4 0-.4.2-.8.5-1.3.3-.4.9-.7 1.6-.7.8-.1 1.5-.1 2.3-.1H97v2.1zM116.2 47.4V34.3h-2v5.2c-.4-.1-.8-.3-1.2-.3-.4-.1-.8-.1-1.5-.1-1.8 0-3.1.6-4.1 1.7-1 1.1-1.5 2.7-1.5 4.8 0 2.2.4 3.8 1.2 4.9.8 1 2 1.6 3.7 1.6.8 0 1.6-.2 2.2-.6.6-.4 1.1-.9 1.4-1.4h.1l.5 1.8h1.3c-.1-.7-.2-1.3-.2-2 .1-.9.1-1.7.1-2.5zm-2 .2c-.2.9-.5 1.6-1 2s-1.2.7-2 .7c-.6 0-1.1-.1-1.5-.4-.4-.2-.7-.6-1-1-.2-.4-.4-.9-.5-1.5s-.2-1.2-.2-1.9c0-1.7.3-2.9 1-3.6.6-.8 1.5-1.1 2.7-1.1.6 0 1.1.1 1.5.1.4.1.7.3 1 .5v6.2zM127 40.7c-.4-.6-1-1-1.7-1.3s-1.5-.5-2.4-.5c-1.8 0-3.1.6-4 1.7-.9 1.1-1.4 2.7-1.4 4.8 0 1 .1 1.9.3 2.7.2.8.5 1.5 1 2.1.4.6 1 1 1.7 1.3s1.5.5 2.4.5c1.8 0 3.1-.6 4-1.7.9-1.1 1.4-2.7 1.4-4.8 0-1-.1-1.9-.3-2.7s-.6-1.5-1-2.1zm-4.1 9.5c-.6 0-1.1-.1-1.6-.4-.4-.3-.8-.6-1-1-.3-.4-.5-.9-.6-1.5s-.2-1.2-.2-1.8c0-3.2 1.1-4.8 3.4-4.8.6 0 1.1.1 1.6.4.4.3.8.6 1 1 .3.4.5.9.6 1.5s.2 1.2.2 1.8c-.1 3.2-1.2 4.8-3.4 4.8zM154.4 34H152l-2.1 3.5h1.5z"/><path d="M151.3 38.9c-3.3 0-6 2.4-6 6.4 0 3.8 2.5 6.2 5.8 6.2 2.9 0 6-1.9 6-6.4 0-3.7-2.4-6.2-5.8-6.2zm-.1 10.9c-2.1 0-3.6-2-3.6-4.6 0-2.3 1.1-4.6 3.7-4.6s3.6 2.6 3.6 4.6c-.1 2.7-1.6 4.6-3.7 4.6zM169 33.6h-2.2v7.2c-.5-.9-1.8-1.8-3.6-1.8-2.9 0-5.4 2.4-5.4 6.4 0 3.6 2.3 6.1 5.2 6.1 2 0 3.4-1 4-2.4h.1l.1 2.1h1.9c0-.8-.1-2-.1-3.1V33.6zm-2.1 12.6c0 .3 0 .6-.1.9-.4 1.6-1.7 2.6-3.2 2.6-2.3 0-3.5-2-3.5-4.4 0-2.6 1.3-4.6 3.6-4.6 1.6 0 2.8 1.1 3.2 2.5.1.3.1.6.1.9v2.1h-.1zM184.7 41c-.6-1-1.7-2.1-3.8-2.1-2.8 0-5.4 2.3-5.4 6.4 0 3.3 2.1 5.9 5.1 5.9 1.9 0 3.2-.9 3.8-2v1.3c0 3.1-1.6 4.2-3.9 4.2-1.5 0-2.7-.4-3.5-1l-.5 1.7c1 .6 2.6 1 4 1 1.5 0 3.2-.4 4.4-1.4 1.1-1.1 1.7-2.7 1.7-5.5v-7c0-1.4 0-2.4.1-3.3h-1.9l-.1 1.8zm-.3 5.1c0 .4-.1.8-.2 1.2-.4 1.4-1.7 2.2-3 2.2-2.3 0-3.5-2-3.5-4.3 0-2.8 1.5-4.5 3.6-4.5 1.6 0 2.7 1 3.1 2.3.1.3.1.6.1 1v2.1h-.1zM193.9 38.9c-3.3 0-6 2.4-6 6.4 0 3.8 2.5 6.2 5.8 6.2 2.9 0 6-1.9 6-6.4 0-3.7-2.3-6.2-5.8-6.2zm-.1 10.9c-2.1 0-3.6-2-3.6-4.6 0-2.3 1.1-4.6 3.7-4.6s3.6 2.6 3.6 4.6c0 2.7-1.6 4.6-3.7 4.6zM172.3 34.4c-.8 0-1.4.6-1.4 1.4 0 .7.5 1.3 1.3 1.3.9 0 1.4-.6 1.4-1.3 0-.8-.5-1.4-1.3-1.4zM171.2 39.2h2.2v12h-2.2z"/><g><path d="M56.9 58.8H58v7.5h3.6v.9h-4.7v-8.4zM66.5 59.5c0 .4-.3.7-.7.7-.4 0-.7-.3-.7-.7s.3-.7.7-.7c.5 0 .7.3.7.7zm-1.2 7.7v-6h1.1v6h-1.1zM71.2 61.2l1.2 3.4c.2.6.4 1.1.5 1.6.1-.5.3-1 .5-1.6l1.2-3.4h1.2l-2.4 6h-1.1l-2.3-6h1.2zM79.3 63.1c0-.7 0-1.3-.1-1.9h1l.1 1.2c.3-.8 1-1.3 1.7-1.3h.3v1h-.4c-.8 0-1.3.6-1.5 1.4v3.7h-1.1v-4.1zM91.2 64.2c0 2.2-1.6 3.2-3 3.2-1.6 0-2.9-1.2-2.9-3.1 0-2 1.3-3.2 3-3.2s2.9 1.2 2.9 3.1zm-4.8 0c0 1.3.8 2.3 1.8 2.3 1.1 0 1.8-1 1.8-2.3 0-1-.5-2.3-1.8-2.3-1.2 0-1.8 1.2-1.8 2.3zM94.9 66.1c.3.2.9.4 1.5.4.8 0 1.2-.4 1.2-.9s-.3-.8-1.1-1.1c-1.1-.4-1.6-1-1.6-1.7 0-1 .8-1.8 2.1-1.8.6 0 1.2.2 1.5.4l-.3.8c-.2-.2-.7-.4-1.2-.4-.7 0-1 .4-1 .8 0 .5.4.7 1.1 1 1 .4 1.6.9 1.6 1.8 0 1.1-.8 1.8-2.2 1.8-.7 0-1.3-.2-1.7-.4l.1-.7zM108.3 64.4c0 1.5 1 2.1 2.1 2.1.8 0 1.3-.1 1.7-.3l.2.8c-.4.2-1.1.4-2 .4-1.9 0-3-1.2-3-3.1 0-1.8 1.1-3.2 2.8-3.2 2 0 2.5 1.7 2.5 2.8v.5h-4.3zm3.2-.8c0-.7-.3-1.8-1.5-1.8-1.1 0-1.6 1-1.7 1.8h3.2zM122.7 59.7h-2.6v-.9h6.2v.9h-2.6v7.5h-1.1l.1-7.5zM129.5 64.4c0 1.5 1 2.1 2.1 2.1.8 0 1.3-.1 1.7-.3l.2.8c-.4.2-1.1.4-2 .4-1.9 0-3-1.2-3-3.1 0-1.8 1.1-3.2 2.8-3.2 2 0 2.5 1.7 2.5 2.8v.5h-4.3zm3.2-.8c0-.7-.3-1.8-1.5-1.8-1.1 0-1.6 1-1.7 1.8h3.2zM142 67c-.3.1-.9.4-1.7.4-1.8 0-3-1.2-3-3.1s1.3-3.2 3.2-3.2c.7 0 1.2.2 1.5.3l-.3.8c-.3-.1-.7-.3-1.3-.3-1.4 0-2.1 1-2.1 2.3 0 1.4.9 2.3 2.1 2.3.6 0 1-.2 1.4-.3l.2.8zM145.8 62.8c0-.6 0-1.1-.1-1.6h1l.1 1c.3-.6 1-1.1 2-1.1.8 0 2.1.5 2.1 2.6v3.6h-1.1v-3.5c0-1-.4-1.8-1.4-1.8-.7 0-1.3.5-1.5 1.1-.1.1-.1.3-.1.5v3.6h-1.1l.1-4.4zM160.7 64.2c0 2.2-1.6 3.2-3 3.2-1.6 0-2.9-1.2-2.9-3.1 0-2 1.3-3.2 3-3.2s2.9 1.2 2.9 3.1zm-4.8 0c0 1.3.8 2.3 1.8 2.3 1.1 0 1.8-1 1.8-2.3 0-1-.5-2.3-1.8-2.3-1.2 0-1.8 1.2-1.8 2.3zM164.6 58.4h1.1v8.9h-1.1v-8.9zM175.5 64.2c0 2.2-1.6 3.2-3 3.2-1.6 0-2.9-1.2-2.9-3.1 0-2 1.3-3.2 3-3.2s2.9 1.2 2.9 3.1zm-4.8 0c0 1.3.8 2.3 1.8 2.3 1.1 0 1.8-1 1.8-2.3 0-1-.5-2.3-1.8-2.3-1.2 0-1.8 1.2-1.8 2.3zM184.6 66.3c0 1.4-.3 2.2-.9 2.8-.6.5-1.5.7-2.2.7s-1.5-.2-2-.5l.3-.9c.4.3 1 .5 1.8.5 1.1 0 1.9-.6 1.9-2.1v-.7c-.3.6-1 1-1.9 1-1.5 0-2.6-1.3-2.6-2.9 0-2 1.3-3.2 2.7-3.2 1.1 0 1.6.5 1.9 1v-.9h1c0 .4-.1.9-.1 1.6v3.6h.1zm-1.1-2.7c0-.2 0-.4-.1-.5-.2-.7-.7-1.2-1.5-1.2-1.1 0-1.8.9-1.8 2.3 0 1.2.6 2.2 1.8 2.2.7 0 1.3-.4 1.5-1.1.1-.2.1-.4.1-.6v-1.1zM190 59.5c0 .4-.3.7-.7.7s-.7-.3-.7-.7.3-.7.7-.7c.5 0 .7.3.7.7zm-1.2 7.7v-6h1.1v6h-1.1zM198.5 65.8c0 .5 0 1 .1 1.5h-1l-.1-.8c-.3.5-1 .9-1.8.9-1.2 0-1.8-.9-1.8-1.7 0-1.5 1.3-2.3 3.6-2.2v-.1c0-.5-.1-1.4-1.4-1.4-.6 0-1.2.2-1.6.5l-.3-.7c.5-.3 1.2-.5 2-.5 1.8 0 2.3 1.3 2.3 2.5v2zm-1.1-1.7c-1.2 0-2.6.2-2.6 1.4 0 .7.5 1.1 1 1.1.8 0 1.3-.5 1.5-1 0-.1.1-.3.1-.4v-1.1z"/></g></g></svg>